<svg xmlns="http://www.w3.org/2000/svg" width="44" height="44" viewBox="490 418 273 416" fill="none">
  <path fill-rule="evenodd" clip-rule="evenodd" d="
    M 755 421 L 748 418 L 531 418 L 511 425 L 497 439 L 491 455 L 490 821 L 492 828 L 496 832 L 501 834 L 509 833 L 713 714 L 745 698 L 759 684 L 763 672 L 763 433 L 760 426 Z
    M 526 446 L 535 443 L 738 444 L 738 681 L 733 688 L 729 690 L 573 691 L 561 697 L 518 736 L 517 735 L 517 459 L 520 452 Z
  " fill="#25282C"/>
  <path d="M 553 510 L 554 517 L 560 522 L 700 522 L 708 515 L 708 507 L 701 501 L 562 501 L 556 504 Z" fill="#25282C"/>
  <path d="M 553 564 L 555 573 L 562 577 L 659 577 L 665 575 L 670 570 L 670 560 L 664 555 L 562 555 L 559 556 Z" fill="#25282C"/>
  <path d="M 553 618 L 554 626 L 560 631 L 623 631 L 627 629 L 631 623 L 631 616 L 625 610 L 561 610 L 557 612 Z" fill="#25282C"/>
</svg>
