<svg xmlns="http://www.w3.org/2000/svg" width="64" height="64" viewBox="0 0 64 64" fill="none">
  <rect x="4" y="4" width="56" height="56" rx="14" fill="#25282C" />
  <g transform="translate(15 7) scale(0.125)">
    <path
      fill-rule="evenodd"
      clip-rule="evenodd"
      d="M755 421L748 418H531L511 425L497 439L491 455L490 821L492 828L496 832L501 834L509 833L713 714L745 698L759 684L763 672V433L760 426ZM526 446L535 443L738 444V681L733 688L729 690H573L561 697L518 736L517 735V459L520 452L526 446Z"
      fill="#FEFEFE"
    />
    <path d="M553 510L554 517L560 522H700L708 515V507L701 501H562L556 504L553 510Z" fill="#FEFEFE" />
    <path d="M553 564L555 573L562 577H659L665 575L670 570V560L664 555H562L559 556L553 564Z" fill="#FEFEFE" />
    <path d="M553 618L554 626L560 631H623L627 629L631 623V616L625 610H561L557 612L553 618Z" fill="#FEFEFE" />
  </g>
</svg>
